# xmcd CD database file
#
# Track frame offsets:
#	150
#	28577
#	52643
#	80853
#	103765
#	121553
#	145607
#	166075
#	199147
#	217315
#	241673
#
# Disc length: 3540 seconds
#
# Revision: 1
# Processed by: cddbd v1.5.2PL0 Copyright (c) Steve Scherf et al.
# Submitted via: CDex 1.70beta2
#
DISCID=8b0dd20b
DTITLE=Efrat Alony - Dismantling Dreams
DYEAR=2009
DGENRE=Jazz
TTITLE0=Dismantling Dreams
TTITLE1=Lights On/Off
TTITLE2=And Then I Think of You
TTITLE3=The Song of Spring
TTITLE4=Crystal Gazing
TTITLE5=Hear Me
TTITLE6=Buba Memukenet (Mechanical Doll)
TTITLE7=To a Child Dancing in the Wind
TTITLE8=2 Years Later
TTITLE9=Recollecting
TTITLE10=Ad Matay (Till When)
EXTD=YEAR: 2009
EXTT0=
EXTT1=
EXTT2=
EXTT3=
EXTT4=
EXTT5=
EXTT6=
EXTT7=
EXTT8=
EXTT9=
EXTT10=
PLAYORDER=
